<?xml version="1.0" encoding="UTF-8" standalone="no"?>
<svg width="18px" height="16px" viewBox="0 0 18 16" version="1.1" xmlns="http://www.w3.org/2000/svg" xmlns:xlink="http://www.w3.org/1999/xlink">
    <!-- Generator: Sketch 41 (35326) - http://www.bohemiancoding.com/sketch -->
    <title>Shape</title>
    <desc>Created with Sketch.</desc>
    <defs></defs>
    <g id="Page-1" stroke="none" stroke-width="1" fill="none" fill-rule="evenodd">
        <g id="heart" style="mix-blend-mode: overlay;" fill="#333333">
            <path d="M17.5238182,3.0968 C17.1196364,1.9936 16.3456364,1.1328 15.345,0.672 C14.661,0.356 13.8935455,0.1896 13.1244545,0.1896 C11.4193636,0.1896 9.84109091,0.992 9.10309091,2.2328 L8.99345455,2.416 L8.89772727,2.256 C8.16054545,1.0128 6.58145455,0.2104 4.87554545,0.2104 C4.10727273,0.2104 3.33981818,0.3768 2.65663636,0.692 C1.656,1.1528 0.882,2.0136 0.477,3.116 C0.00654545455,4.3976 0.0801818182,5.8944 0.672545455,7.12 C2.04136364,9.948 8.523,15.5136 8.79790909,15.7496 C8.84863636,15.7936 8.91981818,15.8112 8.98854545,15.8112 C9.00245455,15.8112 9.01636364,15.8104 9.03027273,15.8088 C9.09572727,15.8024 9.162,15.7672 9.21109091,15.7208 C9.59072727,15.3952 15.9700909,9.9008 17.3266364,7.0968 C17.9198182,5.8728 17.9934545,4.3776 17.5238182,3.0968 Z M16.7948182,6.8496 C15.5986364,9.3216 10.0456364,14.224 8.98854545,15.144 C7.87254545,14.172 2.39236364,9.3256 1.206,6.8736 C0.678272727,5.7832 0.612818182,4.4512 1.03172727,3.3104 C1.38354545,2.3536 2.04954545,1.6088 2.90781818,1.2136 C3.51327273,0.9344 4.194,0.7864 4.87554545,0.7864 C6.37527273,0.7864 7.75390909,1.4768 8.38881818,2.5464 L8.73818182,3.128 C8.78890909,3.2128 8.88054545,3.2664 8.98118182,3.2704 C9.08181818,3.2744 9.17754545,3.2272 9.23481818,3.1464 C9.23890909,3.1408 9.25936364,3.1112 9.26345455,3.1048 L9.612,2.5232 C10.2469091,1.456 11.6255455,0.7656 13.1244545,0.7656 C13.8068182,0.7656 14.4875455,0.9136 15.0938182,1.1928 C15.9520909,1.588 16.6180909,2.3328 16.9690909,3.2912 C17.3871818,4.4312 17.3217273,5.7616 16.7948182,6.8496 Z" id="Shape"></path>
        </g>
    </g>
</svg>