<?xml version="1.0" encoding="UTF-8" standalone="no"?>
<svg width="88px" height="78px" viewBox="0 0 88 78" version="1.1" xmlns="http://www.w3.org/2000/svg" xmlns:xlink="http://www.w3.org/1999/xlink">
    <!-- Generator: Sketch 41 (35326) - http://www.bohemiancoding.com/sketch -->
    <title>Slice 1</title>
    <desc>Created with Sketch.</desc>
    <defs></defs>
    <g id="Page-1" stroke="none" stroke-width="1" fill="none" fill-rule="evenodd">
        <g id="noun_585522_cc" transform="translate(0.000000, -1.000000)" fill="#3D4853">
            <g id="Group" transform="translate(0.000000, 0.637820)">
                <path d="M21.875,0.375 C8.76197087,0.375 0,11.1415862 0,23.125 C0,34.3681375 6.38485313,44.0853625 14.1914062,51.75395 C21.9979594,59.42245 31.3140222,65.1075 37.7070312,68.40625 C38.2053441,68.6595119 38.7946559,68.6595119 39.2929687,68.40625 C45.6859777,65.1075 55.0020406,59.42245 62.8085937,51.75395 C70.6151469,44.0853625 77,34.3681375 77,23.125 C77,11.1415862 68.2380265,0.375 55.125,0.375 C47.3950715,0.375 42.2599756,4.316385 38.5,9.64453125 C34.7400244,4.316385 29.6049285,0.375 21.875,0.375 Z M21.875,3.875 C29.3708117,3.875 33.478354,7.614925 36.9960938,13.5 C37.3116609,14.0301439 37.8830436,14.3549775 38.5,14.3549775 C39.1169564,14.3549775 39.6883391,14.0301439 40.0039062,13.5 C43.521646,7.614925 47.6291882,3.875 55.125,3.875 C66.3495035,3.875 73.5,12.8064137 73.5,23.125 C73.5,33.0332375 67.7789079,41.938375 60.3476562,49.238325 C53.187036,56.272275 44.6302937,61.6224625 38.5,64.8515625 C32.3697062,61.6224625 23.812964,56.272275 16.6523437,49.238325 C9.22109213,41.938375 3.5,33.0332375 3.5,23.125 C3.5,12.8064137 10.6504939,3.875 21.875,3.875 Z" id="Shape"></path>
            </g>
        </g>
    </g>
</svg>