<svg id="Layer_1" data-name="Layer 1" xmlns="http://www.w3.org/2000/svg" viewBox="0 0 64.49 36.64">
  <defs>
    <style>
      .cls-1 {
        fill: none;
        stroke: #3d4853;
        stroke-linecap: round;
        stroke-linejoin: round;
        stroke-width: 2px;
      }
    </style>
  </defs>
  <title>money</title>
  <g>
    <line class="cls-1" x1="58.31" y1="5.88" x2="58.35" y2="30.76"/>
    <line class="cls-1" x1="6.16" y1="30.76" x2="58.33" y2="30.76"/>
  </g>
  <g>
    <line class="cls-1" x1="63.46" y1="10.76" x2="63.49" y2="35.64"/>
    <line class="cls-1" x1="11.3" y1="35.64" x2="63.47" y2="35.64"/>
  </g>
  <line class="cls-1" x1="1" y1="1" x2="53.22" y2="1"/>
  <line class="cls-1" x1="1" y1="1" x2="1" y2="25.88"/>
  <line class="cls-1" x1="53.14" y1="1" x2="53.17" y2="25.88"/>
  <line class="cls-1" x1="53.22" y1="1" x2="53.18" y2="8.91"/>
  <line class="cls-1" x1="1" y1="25.88" x2="53.18" y2="25.88"/>
  <line class="cls-1" x1="39.51" y1="4.96" x2="14.65" y2="4.96"/>
  <circle class="cls-1" cx="282.9" cy="249.28" r="3.22" transform="translate(-365.5 39.11) rotate(-45)"/>
  <circle class="cls-1" cx="315.43" cy="249.28" r="3.22" transform="translate(-355.97 62.12) rotate(-45)"/>
  <circle class="cls-1" cx="299.17" cy="249.28" r="6.47" transform="translate(-360.73 50.61) rotate(-45)"/>
  <path class="cls-1" d="M279.86,234.94a6.77,6.77,0,0,1-6.77,6.77" transform="translate(-272.09 -233.94)"/>
  <path class="cls-1" d="M324.76,241.71a6.77,6.77,0,0,1-6.77-6.77" transform="translate(-272.09 -233.94)"/>
</svg>
