<?xml version="1.0" encoding="UTF-8" standalone="no"?>
<svg width="72px" height="62px" viewBox="0 0 72 62" version="1.1" xmlns="http://www.w3.org/2000/svg" xmlns:xlink="http://www.w3.org/1999/xlink">
    <!-- Generator: Sketch 41 (35326) - http://www.bohemiancoding.com/sketch -->
    <title>Slice 1</title>
    <desc>Created with Sketch.</desc>
    <defs></defs>
    <g id="Page-1" stroke="none" stroke-width="1" fill="none" fill-rule="evenodd">
        <g id="noun_171113_cc" fill="#3D4853">
            <path d="M71,28.5 C70.7,28.8 70.2,29 69.8,29 C69.4,29 68.9,28.8 68.6,28.5 L61.5,21.4 L61.5,47.9 C61.5,55.4 55.4,61.5 47.9,61.5 C40.4,61.5 34.3,55.4 34.3,47.9 L34.3,14.2 C34.3,8.6 29.8,4.1 24.2,4.1 C18.6,4.1 14.1,8.6 14.1,14.2 L14.1,38.6 L21.3,31.4 C22,30.7 23.1,30.7 23.8,31.4 C24.5,32.1 24.5,33.2 23.8,33.9 L13.8,43.9 C13.5,44.2 13,44.4 12.6,44.4 L12.5,44.4 L12.4,44.4 C12,44.4 11.5,44.2 11.2,43.9 L1.2,33.9 C0.5,33.2 0.5,32.1 1.2,31.4 C1.9,30.7 3,30.7 3.7,31.4 L10.7,38.4 L10.7,14.2 C10.7,6.7 16.8,0.6 24.3,0.6 C31.8,0.6 37.9,6.7 37.9,14.2 L37.9,47.9 C37.9,53.5 42.4,58 48,58 C53.6,58 58.1,53.5 58.1,47.9 L58.1,21.4 L51,28.5 C50.7,28.8 50.2,29 49.8,29 C49.4,29 48.9,28.8 48.6,28.5 C47.9,27.8 47.9,26.7 48.6,26 L58.6,16 C59,15.6 59.5,15.5 59.9,15.5 C60.4,15.5 60.9,15.6 61.2,16 L71.2,26 C71.7,26.7 71.7,27.8 71,28.5 Z" id="Shape"></path>
        </g>
    </g>
</svg>