<?xml version="1.0" encoding="UTF-8" standalone="no"?>
<svg width="90px" height="90px" viewBox="0 0 90 90" version="1.1" xmlns="http://www.w3.org/2000/svg" xmlns:xlink="http://www.w3.org/1999/xlink">
    <!-- Generator: Sketch 41 (35326) - http://www.bohemiancoding.com/sketch -->
    <title>Slice 1</title>
    <desc>Created with Sketch.</desc>
    <defs></defs>
    <g id="Page-1" stroke="none" stroke-width="1" fill="none" fill-rule="evenodd">
        <g id="noun_563195_cc" fill="#3D4853">
            <path d="M61.955,23.331 L50.977,34.31 C49.675,35.611 49.675,37.722 50.977,39.023 C52.298,40.345 54.405,40.308 55.691,39.023 L72.359,22.354 C73.661,21.052 73.661,18.941 72.359,17.64 L55.69,0.976 C54.387,-0.324 52.278,-0.325 50.976,0.977 C49.674,2.279 49.674,4.389 50.976,5.691 L61.953,16.664 L36.668,16.664 C16.449,16.664 0,33.114 0,53.332 C0,55.173 1.493,56.665 3.333,56.665 C5.173,56.665 6.666,55.173 6.666,53.332 C6.666,36.79 20.125,23.331 36.668,23.331 L61.955,23.331 Z M86.667,33.335 C84.826,33.335 83.333,34.828 83.333,36.668 C83.333,53.21 69.875,66.667 53.332,66.667 L28.047,66.667 L39.024,55.688 C40.326,54.389 40.326,52.277 39.024,50.974 C37.702,49.653 35.596,49.692 34.311,50.974 L17.643,67.644 C16.341,68.947 16.341,71.057 17.643,72.36 L34.31,89.023 C35.612,90.324 37.721,90.325 39.023,89.023 C40.325,87.721 40.325,85.61 39.023,84.308 L28.044,73.333 L53.332,73.333 C73.552,73.333 90,56.885 90,36.668 C90,34.828 88.508,33.335 86.667,33.335 Z" id="Shape"></path>
        </g>
    </g>
</svg>